%TF.GenerationSoftware,KiCad,Pcbnew,9.0.3-9.0.3-0~ubuntu24.04.1*%
%TF.CreationDate,2025-07-21T18:35:06+02:00*%
%TF.ProjectId,humidity-control,68756d69-6469-4747-992d-636f6e74726f,rev?*%
%TF.SameCoordinates,Original*%
%TF.FileFunction,Legend,Top*%
%TF.FilePolarity,Positive*%
%FSLAX46Y46*%
G04 Gerber Fmt 4.6, Leading zero omitted, Abs format (unit mm)*
G04 Created by KiCad (PCBNEW 9.0.3-9.0.3-0~ubuntu24.04.1) date 2025-07-21 18:35:06*
%MOMM*%
%LPD*%
G01*
G04 APERTURE LIST*
%ADD10C,0.200000*%
%ADD11C,0.300000*%
%ADD12C,0.150000*%
%ADD13C,0.120000*%
G04 APERTURE END LIST*
D10*
X162026600Y-104648000D02*
X162030800Y-72771000D01*
X153030800Y-72771000D02*
X153026600Y-104648000D01*
X162030800Y-72771000D02*
X153030800Y-72771000D01*
X153026600Y-104648000D02*
X162026600Y-104648000D01*
D11*
X160676110Y-80941200D02*
X161818968Y-80941200D01*
X161247539Y-81512628D02*
X161247539Y-80369771D01*
X163033253Y-80726914D02*
X162533253Y-80726914D01*
X162533253Y-81512628D02*
X162533253Y-80012628D01*
X162533253Y-80012628D02*
X163247539Y-80012628D01*
X164461825Y-81512628D02*
X164461825Y-80726914D01*
X164461825Y-80726914D02*
X164390396Y-80584057D01*
X164390396Y-80584057D02*
X164247539Y-80512628D01*
X164247539Y-80512628D02*
X163961825Y-80512628D01*
X163961825Y-80512628D02*
X163818967Y-80584057D01*
X164461825Y-81441200D02*
X164318967Y-81512628D01*
X164318967Y-81512628D02*
X163961825Y-81512628D01*
X163961825Y-81512628D02*
X163818967Y-81441200D01*
X163818967Y-81441200D02*
X163747539Y-81298342D01*
X163747539Y-81298342D02*
X163747539Y-81155485D01*
X163747539Y-81155485D02*
X163818967Y-81012628D01*
X163818967Y-81012628D02*
X163961825Y-80941200D01*
X163961825Y-80941200D02*
X164318967Y-80941200D01*
X164318967Y-80941200D02*
X164461825Y-80869771D01*
X165176110Y-80512628D02*
X165176110Y-81512628D01*
X165176110Y-80655485D02*
X165247539Y-80584057D01*
X165247539Y-80584057D02*
X165390396Y-80512628D01*
X165390396Y-80512628D02*
X165604682Y-80512628D01*
X165604682Y-80512628D02*
X165747539Y-80584057D01*
X165747539Y-80584057D02*
X165818968Y-80726914D01*
X165818968Y-80726914D02*
X165818968Y-81512628D01*
X160676110Y-96625628D02*
X160676110Y-95125628D01*
X160676110Y-95839914D02*
X161533253Y-95839914D01*
X161533253Y-96625628D02*
X161533253Y-95125628D01*
X162890397Y-95625628D02*
X162890397Y-96625628D01*
X162247539Y-95625628D02*
X162247539Y-96411342D01*
X162247539Y-96411342D02*
X162318968Y-96554200D01*
X162318968Y-96554200D02*
X162461825Y-96625628D01*
X162461825Y-96625628D02*
X162676111Y-96625628D01*
X162676111Y-96625628D02*
X162818968Y-96554200D01*
X162818968Y-96554200D02*
X162890397Y-96482771D01*
X163604682Y-96625628D02*
X163604682Y-95625628D01*
X163604682Y-95768485D02*
X163676111Y-95697057D01*
X163676111Y-95697057D02*
X163818968Y-95625628D01*
X163818968Y-95625628D02*
X164033254Y-95625628D01*
X164033254Y-95625628D02*
X164176111Y-95697057D01*
X164176111Y-95697057D02*
X164247540Y-95839914D01*
X164247540Y-95839914D02*
X164247540Y-96625628D01*
X164247540Y-95839914D02*
X164318968Y-95697057D01*
X164318968Y-95697057D02*
X164461825Y-95625628D01*
X164461825Y-95625628D02*
X164676111Y-95625628D01*
X164676111Y-95625628D02*
X164818968Y-95697057D01*
X164818968Y-95697057D02*
X164890397Y-95839914D01*
X164890397Y-95839914D02*
X164890397Y-96625628D01*
X166247540Y-96554200D02*
X166104682Y-96625628D01*
X166104682Y-96625628D02*
X165818968Y-96625628D01*
X165818968Y-96625628D02*
X165676111Y-96554200D01*
X165676111Y-96554200D02*
X165604682Y-96482771D01*
X165604682Y-96482771D02*
X165533254Y-96339914D01*
X165533254Y-96339914D02*
X165533254Y-95911342D01*
X165533254Y-95911342D02*
X165604682Y-95768485D01*
X165604682Y-95768485D02*
X165676111Y-95697057D01*
X165676111Y-95697057D02*
X165818968Y-95625628D01*
X165818968Y-95625628D02*
X166104682Y-95625628D01*
X166104682Y-95625628D02*
X166247540Y-95697057D01*
X166676111Y-95625628D02*
X167247539Y-95625628D01*
X166890396Y-95125628D02*
X166890396Y-96411342D01*
X166890396Y-96411342D02*
X166961825Y-96554200D01*
X166961825Y-96554200D02*
X167104682Y-96625628D01*
X167104682Y-96625628D02*
X167247539Y-96625628D01*
X167747539Y-96625628D02*
X167747539Y-95625628D01*
X167747539Y-95911342D02*
X167818968Y-95768485D01*
X167818968Y-95768485D02*
X167890397Y-95697057D01*
X167890397Y-95697057D02*
X168033254Y-95625628D01*
X168033254Y-95625628D02*
X168176111Y-95625628D01*
X168890396Y-96625628D02*
X168747539Y-96554200D01*
X168747539Y-96554200D02*
X168676110Y-96411342D01*
X168676110Y-96411342D02*
X168676110Y-95125628D01*
X160676110Y-75988200D02*
X161818968Y-75988200D01*
X163033253Y-75773914D02*
X162533253Y-75773914D01*
X162533253Y-76559628D02*
X162533253Y-75059628D01*
X162533253Y-75059628D02*
X163247539Y-75059628D01*
X164461825Y-76559628D02*
X164461825Y-75773914D01*
X164461825Y-75773914D02*
X164390396Y-75631057D01*
X164390396Y-75631057D02*
X164247539Y-75559628D01*
X164247539Y-75559628D02*
X163961825Y-75559628D01*
X163961825Y-75559628D02*
X163818967Y-75631057D01*
X164461825Y-76488200D02*
X164318967Y-76559628D01*
X164318967Y-76559628D02*
X163961825Y-76559628D01*
X163961825Y-76559628D02*
X163818967Y-76488200D01*
X163818967Y-76488200D02*
X163747539Y-76345342D01*
X163747539Y-76345342D02*
X163747539Y-76202485D01*
X163747539Y-76202485D02*
X163818967Y-76059628D01*
X163818967Y-76059628D02*
X163961825Y-75988200D01*
X163961825Y-75988200D02*
X164318967Y-75988200D01*
X164318967Y-75988200D02*
X164461825Y-75916771D01*
X165176110Y-75559628D02*
X165176110Y-76559628D01*
X165176110Y-75702485D02*
X165247539Y-75631057D01*
X165247539Y-75631057D02*
X165390396Y-75559628D01*
X165390396Y-75559628D02*
X165604682Y-75559628D01*
X165604682Y-75559628D02*
X165747539Y-75631057D01*
X165747539Y-75631057D02*
X165818968Y-75773914D01*
X165818968Y-75773914D02*
X165818968Y-76559628D01*
X161176110Y-90759914D02*
X160676110Y-90759914D01*
X160676110Y-91545628D02*
X160676110Y-90045628D01*
X160676110Y-90045628D02*
X161390396Y-90045628D01*
X162604682Y-91545628D02*
X162604682Y-90759914D01*
X162604682Y-90759914D02*
X162533253Y-90617057D01*
X162533253Y-90617057D02*
X162390396Y-90545628D01*
X162390396Y-90545628D02*
X162104682Y-90545628D01*
X162104682Y-90545628D02*
X161961824Y-90617057D01*
X162604682Y-91474200D02*
X162461824Y-91545628D01*
X162461824Y-91545628D02*
X162104682Y-91545628D01*
X162104682Y-91545628D02*
X161961824Y-91474200D01*
X161961824Y-91474200D02*
X161890396Y-91331342D01*
X161890396Y-91331342D02*
X161890396Y-91188485D01*
X161890396Y-91188485D02*
X161961824Y-91045628D01*
X161961824Y-91045628D02*
X162104682Y-90974200D01*
X162104682Y-90974200D02*
X162461824Y-90974200D01*
X162461824Y-90974200D02*
X162604682Y-90902771D01*
X163318967Y-90545628D02*
X163318967Y-91545628D01*
X163318967Y-90688485D02*
X163390396Y-90617057D01*
X163390396Y-90617057D02*
X163533253Y-90545628D01*
X163533253Y-90545628D02*
X163747539Y-90545628D01*
X163747539Y-90545628D02*
X163890396Y-90617057D01*
X163890396Y-90617057D02*
X163961825Y-90759914D01*
X163961825Y-90759914D02*
X163961825Y-91545628D01*
X165318968Y-91474200D02*
X165176110Y-91545628D01*
X165176110Y-91545628D02*
X164890396Y-91545628D01*
X164890396Y-91545628D02*
X164747539Y-91474200D01*
X164747539Y-91474200D02*
X164676110Y-91402771D01*
X164676110Y-91402771D02*
X164604682Y-91259914D01*
X164604682Y-91259914D02*
X164604682Y-90831342D01*
X164604682Y-90831342D02*
X164676110Y-90688485D01*
X164676110Y-90688485D02*
X164747539Y-90617057D01*
X164747539Y-90617057D02*
X164890396Y-90545628D01*
X164890396Y-90545628D02*
X165176110Y-90545628D01*
X165176110Y-90545628D02*
X165318968Y-90617057D01*
X165747539Y-90545628D02*
X166318967Y-90545628D01*
X165961824Y-90045628D02*
X165961824Y-91331342D01*
X165961824Y-91331342D02*
X166033253Y-91474200D01*
X166033253Y-91474200D02*
X166176110Y-91545628D01*
X166176110Y-91545628D02*
X166318967Y-91545628D01*
X166818967Y-91545628D02*
X166818967Y-90545628D01*
X166818967Y-90831342D02*
X166890396Y-90688485D01*
X166890396Y-90688485D02*
X166961825Y-90617057D01*
X166961825Y-90617057D02*
X167104682Y-90545628D01*
X167104682Y-90545628D02*
X167247539Y-90545628D01*
X167961824Y-91545628D02*
X167818967Y-91474200D01*
X167818967Y-91474200D02*
X167747538Y-91331342D01*
X167747538Y-91331342D02*
X167747538Y-90045628D01*
X160676110Y-85640200D02*
X161818968Y-85640200D01*
X161247539Y-86211628D02*
X161247539Y-85068771D01*
X163318968Y-86211628D02*
X162461825Y-86211628D01*
X162890396Y-86211628D02*
X162890396Y-84711628D01*
X162890396Y-84711628D02*
X162747539Y-84925914D01*
X162747539Y-84925914D02*
X162604682Y-85068771D01*
X162604682Y-85068771D02*
X162461825Y-85140200D01*
X163890396Y-84854485D02*
X163961824Y-84783057D01*
X163961824Y-84783057D02*
X164104682Y-84711628D01*
X164104682Y-84711628D02*
X164461824Y-84711628D01*
X164461824Y-84711628D02*
X164604682Y-84783057D01*
X164604682Y-84783057D02*
X164676110Y-84854485D01*
X164676110Y-84854485D02*
X164747539Y-84997342D01*
X164747539Y-84997342D02*
X164747539Y-85140200D01*
X164747539Y-85140200D02*
X164676110Y-85354485D01*
X164676110Y-85354485D02*
X163818967Y-86211628D01*
X163818967Y-86211628D02*
X164747539Y-86211628D01*
X165176110Y-84711628D02*
X165676110Y-86211628D01*
X165676110Y-86211628D02*
X166176110Y-84711628D01*
X161461825Y-100785057D02*
X161318968Y-100713628D01*
X161318968Y-100713628D02*
X161104682Y-100713628D01*
X161104682Y-100713628D02*
X160890396Y-100785057D01*
X160890396Y-100785057D02*
X160747539Y-100927914D01*
X160747539Y-100927914D02*
X160676110Y-101070771D01*
X160676110Y-101070771D02*
X160604682Y-101356485D01*
X160604682Y-101356485D02*
X160604682Y-101570771D01*
X160604682Y-101570771D02*
X160676110Y-101856485D01*
X160676110Y-101856485D02*
X160747539Y-101999342D01*
X160747539Y-101999342D02*
X160890396Y-102142200D01*
X160890396Y-102142200D02*
X161104682Y-102213628D01*
X161104682Y-102213628D02*
X161247539Y-102213628D01*
X161247539Y-102213628D02*
X161461825Y-102142200D01*
X161461825Y-102142200D02*
X161533253Y-102070771D01*
X161533253Y-102070771D02*
X161533253Y-101570771D01*
X161533253Y-101570771D02*
X161247539Y-101570771D01*
X162176110Y-102213628D02*
X162176110Y-100713628D01*
X162176110Y-100713628D02*
X163033253Y-102213628D01*
X163033253Y-102213628D02*
X163033253Y-100713628D01*
X163747539Y-102213628D02*
X163747539Y-100713628D01*
X163747539Y-100713628D02*
X164104682Y-100713628D01*
X164104682Y-100713628D02*
X164318968Y-100785057D01*
X164318968Y-100785057D02*
X164461825Y-100927914D01*
X164461825Y-100927914D02*
X164533254Y-101070771D01*
X164533254Y-101070771D02*
X164604682Y-101356485D01*
X164604682Y-101356485D02*
X164604682Y-101570771D01*
X164604682Y-101570771D02*
X164533254Y-101856485D01*
X164533254Y-101856485D02*
X164461825Y-101999342D01*
X164461825Y-101999342D02*
X164318968Y-102142200D01*
X164318968Y-102142200D02*
X164104682Y-102213628D01*
X164104682Y-102213628D02*
X163747539Y-102213628D01*
D12*
X120899752Y-89707619D02*
X120899752Y-88707619D01*
X120899752Y-89183809D02*
X121471180Y-89183809D01*
X121471180Y-89707619D02*
X121471180Y-88707619D01*
X121947371Y-89707619D02*
X121947371Y-88707619D01*
X121947371Y-88707619D02*
X122185466Y-88707619D01*
X122185466Y-88707619D02*
X122328323Y-88755238D01*
X122328323Y-88755238D02*
X122423561Y-88850476D01*
X122423561Y-88850476D02*
X122471180Y-88945714D01*
X122471180Y-88945714D02*
X122518799Y-89136190D01*
X122518799Y-89136190D02*
X122518799Y-89279047D01*
X122518799Y-89279047D02*
X122471180Y-89469523D01*
X122471180Y-89469523D02*
X122423561Y-89564761D01*
X122423561Y-89564761D02*
X122328323Y-89660000D01*
X122328323Y-89660000D02*
X122185466Y-89707619D01*
X122185466Y-89707619D02*
X121947371Y-89707619D01*
X122804514Y-88707619D02*
X123375942Y-88707619D01*
X123090228Y-89707619D02*
X123090228Y-88707619D01*
X124233085Y-89707619D02*
X123661657Y-89707619D01*
X123947371Y-89707619D02*
X123947371Y-88707619D01*
X123947371Y-88707619D02*
X123852133Y-88850476D01*
X123852133Y-88850476D02*
X123756895Y-88945714D01*
X123756895Y-88945714D02*
X123661657Y-88993333D01*
X125185466Y-89707619D02*
X124614038Y-89707619D01*
X124899752Y-89707619D02*
X124899752Y-88707619D01*
X124899752Y-88707619D02*
X124804514Y-88850476D01*
X124804514Y-88850476D02*
X124709276Y-88945714D01*
X124709276Y-88945714D02*
X124614038Y-88993333D01*
X136584181Y-83256219D02*
X136584181Y-84065742D01*
X136584181Y-84065742D02*
X136631800Y-84160980D01*
X136631800Y-84160980D02*
X136679419Y-84208600D01*
X136679419Y-84208600D02*
X136774657Y-84256219D01*
X136774657Y-84256219D02*
X136965133Y-84256219D01*
X136965133Y-84256219D02*
X137060371Y-84208600D01*
X137060371Y-84208600D02*
X137107990Y-84160980D01*
X137107990Y-84160980D02*
X137155609Y-84065742D01*
X137155609Y-84065742D02*
X137155609Y-83256219D01*
X138107990Y-84256219D02*
X137631800Y-84256219D01*
X137631800Y-84256219D02*
X137631800Y-83256219D01*
X138441324Y-84256219D02*
X138441324Y-83256219D01*
X138441324Y-83256219D02*
X139012752Y-84256219D01*
X139012752Y-84256219D02*
X139012752Y-83256219D01*
X139393705Y-83256219D02*
X140060371Y-83256219D01*
X140060371Y-83256219D02*
X139631800Y-84256219D01*
X140631800Y-83256219D02*
X140727038Y-83256219D01*
X140727038Y-83256219D02*
X140822276Y-83303838D01*
X140822276Y-83303838D02*
X140869895Y-83351457D01*
X140869895Y-83351457D02*
X140917514Y-83446695D01*
X140917514Y-83446695D02*
X140965133Y-83637171D01*
X140965133Y-83637171D02*
X140965133Y-83875266D01*
X140965133Y-83875266D02*
X140917514Y-84065742D01*
X140917514Y-84065742D02*
X140869895Y-84160980D01*
X140869895Y-84160980D02*
X140822276Y-84208600D01*
X140822276Y-84208600D02*
X140727038Y-84256219D01*
X140727038Y-84256219D02*
X140631800Y-84256219D01*
X140631800Y-84256219D02*
X140536562Y-84208600D01*
X140536562Y-84208600D02*
X140488943Y-84160980D01*
X140488943Y-84160980D02*
X140441324Y-84065742D01*
X140441324Y-84065742D02*
X140393705Y-83875266D01*
X140393705Y-83875266D02*
X140393705Y-83637171D01*
X140393705Y-83637171D02*
X140441324Y-83446695D01*
X140441324Y-83446695D02*
X140488943Y-83351457D01*
X140488943Y-83351457D02*
X140536562Y-83303838D01*
X140536562Y-83303838D02*
X140631800Y-83256219D01*
X141584181Y-83256219D02*
X141679419Y-83256219D01*
X141679419Y-83256219D02*
X141774657Y-83303838D01*
X141774657Y-83303838D02*
X141822276Y-83351457D01*
X141822276Y-83351457D02*
X141869895Y-83446695D01*
X141869895Y-83446695D02*
X141917514Y-83637171D01*
X141917514Y-83637171D02*
X141917514Y-83875266D01*
X141917514Y-83875266D02*
X141869895Y-84065742D01*
X141869895Y-84065742D02*
X141822276Y-84160980D01*
X141822276Y-84160980D02*
X141774657Y-84208600D01*
X141774657Y-84208600D02*
X141679419Y-84256219D01*
X141679419Y-84256219D02*
X141584181Y-84256219D01*
X141584181Y-84256219D02*
X141488943Y-84208600D01*
X141488943Y-84208600D02*
X141441324Y-84160980D01*
X141441324Y-84160980D02*
X141393705Y-84065742D01*
X141393705Y-84065742D02*
X141346086Y-83875266D01*
X141346086Y-83875266D02*
X141346086Y-83637171D01*
X141346086Y-83637171D02*
X141393705Y-83446695D01*
X141393705Y-83446695D02*
X141441324Y-83351457D01*
X141441324Y-83351457D02*
X141488943Y-83303838D01*
X141488943Y-83303838D02*
X141584181Y-83256219D01*
X142298467Y-83351457D02*
X142346086Y-83303838D01*
X142346086Y-83303838D02*
X142441324Y-83256219D01*
X142441324Y-83256219D02*
X142679419Y-83256219D01*
X142679419Y-83256219D02*
X142774657Y-83303838D01*
X142774657Y-83303838D02*
X142822276Y-83351457D01*
X142822276Y-83351457D02*
X142869895Y-83446695D01*
X142869895Y-83446695D02*
X142869895Y-83541933D01*
X142869895Y-83541933D02*
X142822276Y-83684790D01*
X142822276Y-83684790D02*
X142250848Y-84256219D01*
X142250848Y-84256219D02*
X142869895Y-84256219D01*
X143250848Y-83970504D02*
X143727038Y-83970504D01*
X143155610Y-84256219D02*
X143488943Y-83256219D01*
X143488943Y-83256219D02*
X143822276Y-84256219D01*
X148148819Y-91571532D02*
X147148819Y-91571532D01*
X147148819Y-91571532D02*
X147148819Y-91333437D01*
X147148819Y-91333437D02*
X147196438Y-91190580D01*
X147196438Y-91190580D02*
X147291676Y-91095342D01*
X147291676Y-91095342D02*
X147386914Y-91047723D01*
X147386914Y-91047723D02*
X147577390Y-91000104D01*
X147577390Y-91000104D02*
X147720247Y-91000104D01*
X147720247Y-91000104D02*
X147910723Y-91047723D01*
X147910723Y-91047723D02*
X148005961Y-91095342D01*
X148005961Y-91095342D02*
X148101200Y-91190580D01*
X148101200Y-91190580D02*
X148148819Y-91333437D01*
X148148819Y-91333437D02*
X148148819Y-91571532D01*
X148148819Y-90571532D02*
X147482152Y-90571532D01*
X147148819Y-90571532D02*
X147196438Y-90619151D01*
X147196438Y-90619151D02*
X147244057Y-90571532D01*
X147244057Y-90571532D02*
X147196438Y-90523913D01*
X147196438Y-90523913D02*
X147148819Y-90571532D01*
X147148819Y-90571532D02*
X147244057Y-90571532D01*
X148148819Y-89952485D02*
X148101200Y-90047723D01*
X148101200Y-90047723D02*
X148053580Y-90095342D01*
X148053580Y-90095342D02*
X147958342Y-90142961D01*
X147958342Y-90142961D02*
X147672628Y-90142961D01*
X147672628Y-90142961D02*
X147577390Y-90095342D01*
X147577390Y-90095342D02*
X147529771Y-90047723D01*
X147529771Y-90047723D02*
X147482152Y-89952485D01*
X147482152Y-89952485D02*
X147482152Y-89809628D01*
X147482152Y-89809628D02*
X147529771Y-89714390D01*
X147529771Y-89714390D02*
X147577390Y-89666771D01*
X147577390Y-89666771D02*
X147672628Y-89619152D01*
X147672628Y-89619152D02*
X147958342Y-89619152D01*
X147958342Y-89619152D02*
X148053580Y-89666771D01*
X148053580Y-89666771D02*
X148101200Y-89714390D01*
X148101200Y-89714390D02*
X148148819Y-89809628D01*
X148148819Y-89809628D02*
X148148819Y-89952485D01*
X148148819Y-88762009D02*
X147148819Y-88762009D01*
X148101200Y-88762009D02*
X148148819Y-88857247D01*
X148148819Y-88857247D02*
X148148819Y-89047723D01*
X148148819Y-89047723D02*
X148101200Y-89142961D01*
X148101200Y-89142961D02*
X148053580Y-89190580D01*
X148053580Y-89190580D02*
X147958342Y-89238199D01*
X147958342Y-89238199D02*
X147672628Y-89238199D01*
X147672628Y-89238199D02*
X147577390Y-89190580D01*
X147577390Y-89190580D02*
X147529771Y-89142961D01*
X147529771Y-89142961D02*
X147482152Y-89047723D01*
X147482152Y-89047723D02*
X147482152Y-88857247D01*
X147482152Y-88857247D02*
X147529771Y-88762009D01*
X148101200Y-87904866D02*
X148148819Y-88000104D01*
X148148819Y-88000104D02*
X148148819Y-88190580D01*
X148148819Y-88190580D02*
X148101200Y-88285818D01*
X148101200Y-88285818D02*
X148005961Y-88333437D01*
X148005961Y-88333437D02*
X147625009Y-88333437D01*
X147625009Y-88333437D02*
X147529771Y-88285818D01*
X147529771Y-88285818D02*
X147482152Y-88190580D01*
X147482152Y-88190580D02*
X147482152Y-88000104D01*
X147482152Y-88000104D02*
X147529771Y-87904866D01*
X147529771Y-87904866D02*
X147625009Y-87857247D01*
X147625009Y-87857247D02*
X147720247Y-87857247D01*
X147720247Y-87857247D02*
X147815485Y-88333437D01*
X148568819Y-95080104D02*
X147568819Y-95080104D01*
X148568819Y-94508676D02*
X147997390Y-94937247D01*
X147568819Y-94508676D02*
X148140247Y-95080104D01*
D13*
%TO.C,HDT11*%
X127898800Y-98752800D02*
X122138800Y-98752800D01*
X127898800Y-90752800D02*
X127898800Y-98752800D01*
X122138800Y-98752800D02*
X122138800Y-90752800D01*
X122138800Y-90752800D02*
X127898800Y-90752800D01*
X121858800Y-90448000D02*
X121858800Y-92252800D01*
X121858800Y-90397200D02*
X123468800Y-90397200D01*
%TO.C,ULN7002A*%
X137481800Y-84801400D02*
X137481800Y-105241400D01*
X137481800Y-105241400D02*
X142781800Y-105241400D01*
X139131800Y-84801400D02*
X137481800Y-84801400D01*
X142781800Y-84801400D02*
X141131800Y-84801400D01*
X142781800Y-105241400D02*
X142781800Y-84801400D01*
X141131800Y-84801400D02*
G75*
G02*
X139131800Y-84801400I-1000000J0D01*
G01*
%TO.C,Diode*%
X148694000Y-90738200D02*
X151534000Y-90738200D01*
X148694000Y-90858200D02*
X151534000Y-90858200D01*
X148694000Y-90978200D02*
X151534000Y-90978200D01*
X150114000Y-85898200D02*
X150114000Y-88018200D01*
X150114000Y-93578200D02*
X150114000Y-91458200D01*
X148694000Y-91458200D02*
X151534000Y-91458200D01*
X151534000Y-88018200D01*
X148694000Y-88018200D01*
X148694000Y-91458200D01*
%TO.C,L7805C*%
X135301200Y-75617200D02*
X145521200Y-75617200D01*
X135301200Y-80237200D02*
X135301200Y-75617200D01*
X138561200Y-80237200D02*
X138561200Y-78857200D01*
X142261200Y-80237200D02*
X142261200Y-78857200D01*
X145521200Y-75617200D02*
X145521200Y-80237200D01*
X145521200Y-78857200D02*
X135301200Y-78857200D01*
X145521200Y-80237200D02*
X135301200Y-80237200D01*
%TD*%
M02*
