%TF.GenerationSoftware,KiCad,Pcbnew,9.0.3-9.0.3-0~ubuntu24.04.1*%
%TF.CreationDate,2025-07-21T18:35:06+02:00*%
%TF.ProjectId,humidity-control,68756d69-6469-4747-992d-636f6e74726f,rev?*%
%TF.SameCoordinates,Original*%
%TF.FileFunction,Copper,L2,Bot*%
%TF.FilePolarity,Positive*%
%FSLAX46Y46*%
G04 Gerber Fmt 4.6, Leading zero omitted, Abs format (unit mm)*
G04 Created by KiCad (PCBNEW 9.0.3-9.0.3-0~ubuntu24.04.1) date 2025-07-21 18:35:06*
%MOMM*%
%LPD*%
G01*
G04 APERTURE LIST*
G04 Aperture macros list*
%AMRoundRect*
0 Rectangle with rounded corners*
0 $1 Rounding radius*
0 $2 $3 $4 $5 $6 $7 $8 $9 X,Y pos of 4 corners*
0 Add a 4 corners polygon primitive as box body*
4,1,4,$2,$3,$4,$5,$6,$7,$8,$9,$2,$3,0*
0 Add four circle primitives for the rounded corners*
1,1,$1+$1,$2,$3*
1,1,$1+$1,$4,$5*
1,1,$1+$1,$6,$7*
1,1,$1+$1,$8,$9*
0 Add four rect primitives between the rounded corners*
20,1,$1+$1,$2,$3,$4,$5,0*
20,1,$1+$1,$4,$5,$6,$7,0*
20,1,$1+$1,$6,$7,$8,$9,0*
20,1,$1+$1,$8,$9,$2,$3,0*%
G04 Aperture macros list end*
%TA.AperFunction,ComponentPad*%
%ADD10C,2.000000*%
%TD*%
%TA.AperFunction,ComponentPad*%
%ADD11R,2.000000X2.000000*%
%TD*%
%TA.AperFunction,ComponentPad*%
%ADD12RoundRect,0.250000X-0.550000X-0.550000X0.550000X-0.550000X0.550000X0.550000X-0.550000X0.550000X0*%
%TD*%
%TA.AperFunction,ComponentPad*%
%ADD13C,1.600000*%
%TD*%
%TA.AperFunction,ComponentPad*%
%ADD14RoundRect,0.250000X0.750000X-0.750000X0.750000X0.750000X-0.750000X0.750000X-0.750000X-0.750000X0*%
%TD*%
%TA.AperFunction,ComponentPad*%
%ADD15R,1.905000X2.000000*%
%TD*%
%TA.AperFunction,ComponentPad*%
%ADD16O,1.905000X2.000000*%
%TD*%
%TA.AperFunction,Conductor*%
%ADD17C,0.500000*%
%TD*%
%TA.AperFunction,Conductor*%
%ADD18C,0.200000*%
%TD*%
G04 APERTURE END LIST*
D10*
%TO.P,HDT11,3*%
%TO.N,N/C*%
X125018800Y-97332800D03*
%TO.P,HDT11,2*%
X125018800Y-94752800D03*
D11*
%TO.P,HDT11,1*%
X125018800Y-92252800D03*
%TD*%
D10*
%TO.P,,3*%
%TO.N,N/C*%
X157454600Y-86156800D03*
%TD*%
%TO.P,,6*%
%TO.N,N/C*%
X157581600Y-101396800D03*
%TD*%
%TO.P,,1*%
%TO.N,N/C*%
X157581600Y-75996800D03*
%TD*%
D12*
%TO.P,ULN7002A,1*%
%TO.N,N/C*%
X136321800Y-86131400D03*
D13*
%TO.P,ULN7002A,2*%
X136321800Y-88671400D03*
%TO.P,ULN7002A,3*%
X136321800Y-91211400D03*
%TO.P,ULN7002A,4*%
X136321800Y-93751400D03*
%TO.P,ULN7002A,5*%
X136321800Y-96291400D03*
%TO.P,ULN7002A,6*%
X136321800Y-98831400D03*
%TO.P,ULN7002A,7*%
X136321800Y-101371400D03*
%TO.P,ULN7002A,8*%
X136321800Y-103911400D03*
%TO.P,ULN7002A,9*%
X143941800Y-103911400D03*
%TO.P,ULN7002A,10*%
X143941800Y-101371400D03*
%TO.P,ULN7002A,11*%
X143941800Y-98831400D03*
%TO.P,ULN7002A,12*%
X143941800Y-96291400D03*
%TO.P,ULN7002A,13*%
X143941800Y-93751400D03*
%TO.P,ULN7002A,14*%
X143941800Y-91211400D03*
%TO.P,ULN7002A,15*%
X143941800Y-88671400D03*
%TO.P,ULN7002A,16*%
X143941800Y-86131400D03*
%TD*%
D14*
%TO.P,Diode,1*%
%TO.N,N/C*%
X150114000Y-94818200D03*
D10*
%TO.P,Diode,2*%
X150114000Y-84658200D03*
%TD*%
%TO.P,,4*%
%TO.N,N/C*%
X157581600Y-91236800D03*
%TD*%
%TO.P,,5*%
%TO.N,N/C*%
X157581600Y-96316800D03*
%TD*%
%TO.P,,2*%
%TO.N,N/C*%
X157581600Y-81076800D03*
%TD*%
D15*
%TO.P,L7805C,1*%
%TO.N,N/C*%
X142951200Y-76977200D03*
D16*
%TO.P,L7805C,2*%
X140411200Y-76977200D03*
%TO.P,L7805C,3*%
X137871200Y-76977200D03*
%TD*%
D17*
%TO.N,*%
X125018800Y-97332800D02*
X125018800Y-102666800D01*
X125018800Y-102666800D02*
X126288800Y-103936800D01*
X126288800Y-103936800D02*
X134546400Y-103936800D01*
X134546400Y-103936800D02*
X134571800Y-103911400D01*
X134571800Y-103911400D02*
X136321800Y-103911400D01*
X125018800Y-94752800D02*
X125114800Y-94656800D01*
X125114800Y-94656800D02*
X128990200Y-94656800D01*
X128990200Y-94656800D02*
X132207000Y-91440000D01*
X132207000Y-81559400D02*
X133870700Y-79895700D01*
X132207000Y-91440000D02*
X132207000Y-81559400D01*
X159668170Y-107430230D02*
X156303600Y-110794800D01*
X156303600Y-110794800D02*
X130886200Y-110794800D01*
X130886200Y-110794800D02*
X123018800Y-102927400D01*
X123018800Y-102927400D02*
X123018800Y-94156800D01*
X123018800Y-94156800D02*
X125018800Y-92156800D01*
X155308200Y-108864400D02*
X155333600Y-108889800D01*
X145821600Y-88696800D02*
X143967200Y-88696800D01*
X155549600Y-93268800D02*
X155549600Y-105460800D01*
X157581600Y-75996800D02*
X157581600Y-77012800D01*
X133870700Y-79895700D02*
X136753600Y-77012800D01*
X138571800Y-88381400D02*
X136321800Y-86131400D01*
X150941600Y-83576800D02*
X145821600Y-88696800D01*
X160934400Y-74649601D02*
X158941600Y-72656800D01*
X143941800Y-86131400D02*
X143941800Y-88671400D01*
X133870700Y-79895700D02*
X135026400Y-78740000D01*
X136351800Y-103911400D02*
X141304800Y-108864400D01*
X157581600Y-96316800D02*
X159715200Y-98450400D01*
X157581600Y-91236800D02*
X162407600Y-86410800D01*
X153797000Y-107213400D02*
X154038300Y-106972100D01*
X140445800Y-76663200D02*
X140725200Y-76663200D01*
X150114000Y-94818200D02*
X150114000Y-99491800D01*
X155333600Y-108889800D02*
X157581600Y-106641800D01*
X158941600Y-72656800D02*
X152450800Y-72656800D01*
X155549600Y-105460800D02*
X154038300Y-106972100D01*
X162407600Y-73964800D02*
X162407600Y-85521800D01*
X152222200Y-72656800D02*
X147901800Y-76977200D01*
X136321800Y-86131400D02*
X136321800Y-88671400D01*
X145694400Y-103911400D02*
X143941800Y-103911400D01*
X138571800Y-103944400D02*
X138571800Y-88381400D01*
X151017600Y-83576800D02*
X150941600Y-83576800D01*
X159156400Y-82651600D02*
X159156400Y-84455000D01*
X160934400Y-82677000D02*
X160934400Y-74649601D01*
X157581600Y-77012800D02*
X151017600Y-83576800D01*
X154038300Y-106972100D02*
X153771600Y-107238800D01*
X143941800Y-88671400D02*
X143981800Y-88631400D01*
X143967200Y-88696800D02*
X143941800Y-88671400D01*
X162407600Y-86410800D02*
X162407600Y-82499200D01*
X152450800Y-72656800D02*
X152222200Y-72656800D01*
X157581600Y-106641800D02*
X157581600Y-101396800D01*
X146243000Y-71145400D02*
X159588200Y-71145400D01*
X157454600Y-86156800D02*
X160934400Y-82677000D01*
X136321800Y-103911400D02*
X136571800Y-104161400D01*
X160934400Y-82677000D02*
X160934400Y-81737200D01*
X150114000Y-99491800D02*
X145694400Y-103911400D01*
X141840800Y-107213400D02*
X138571800Y-103944400D01*
X159156400Y-84455000D02*
X158381700Y-85229700D01*
X141304800Y-108864400D02*
X155308200Y-108864400D01*
X140725200Y-76663200D02*
X146243000Y-71145400D01*
X159588200Y-71145400D02*
X162407600Y-73964800D01*
D18*
X143941800Y-103911400D02*
X144161800Y-104131400D01*
D17*
X157581600Y-81076800D02*
X159156400Y-82651600D01*
X147901800Y-76977200D02*
X142951200Y-76977200D01*
X157581600Y-91236800D02*
X155549600Y-93268800D01*
X141840800Y-107213400D02*
X153797000Y-107213400D01*
X159715200Y-98450400D02*
X159715200Y-107492800D01*
X136321800Y-103911400D02*
X136351800Y-103911400D01*
%TD*%
M02*
