%TF.GenerationSoftware,KiCad,Pcbnew,9.0.3-9.0.3-0~ubuntu24.04.1*%
%TF.CreationDate,2025-07-20T22:02:49+02:00*%
%TF.ProjectId,humidity-control,68756d69-6469-4747-992d-636f6e74726f,rev?*%
%TF.SameCoordinates,Original*%
%TF.FileFunction,AssemblyDrawing,Top*%
%FSLAX46Y46*%
G04 Gerber Fmt 4.6, Leading zero omitted, Abs format (unit mm)*
G04 Created by KiCad (PCBNEW 9.0.3-9.0.3-0~ubuntu24.04.1) date 2025-07-20 22:02:49*
%MOMM*%
%LPD*%
G01*
G04 APERTURE LIST*
%ADD10C,0.150000*%
%ADD11C,0.096000*%
%ADD12C,0.100000*%
G04 APERTURE END LIST*
D10*
X115095238Y-79754819D02*
X115095238Y-78754819D01*
X115095238Y-78754819D02*
X115333333Y-78754819D01*
X115333333Y-78754819D02*
X115476190Y-78802438D01*
X115476190Y-78802438D02*
X115571428Y-78897676D01*
X115571428Y-78897676D02*
X115619047Y-78992914D01*
X115619047Y-78992914D02*
X115666666Y-79183390D01*
X115666666Y-79183390D02*
X115666666Y-79326247D01*
X115666666Y-79326247D02*
X115619047Y-79516723D01*
X115619047Y-79516723D02*
X115571428Y-79611961D01*
X115571428Y-79611961D02*
X115476190Y-79707200D01*
X115476190Y-79707200D02*
X115333333Y-79754819D01*
X115333333Y-79754819D02*
X115095238Y-79754819D01*
X116095238Y-79754819D02*
X116095238Y-78754819D01*
X116095238Y-79231009D02*
X116666666Y-79231009D01*
X116666666Y-79754819D02*
X116666666Y-78754819D01*
X117000000Y-78754819D02*
X117571428Y-78754819D01*
X117285714Y-79754819D02*
X117285714Y-78754819D01*
X118428571Y-79754819D02*
X117857143Y-79754819D01*
X118142857Y-79754819D02*
X118142857Y-78754819D01*
X118142857Y-78754819D02*
X118047619Y-78897676D01*
X118047619Y-78897676D02*
X117952381Y-78992914D01*
X117952381Y-78992914D02*
X117857143Y-79040533D01*
X119380952Y-79754819D02*
X118809524Y-79754819D01*
X119095238Y-79754819D02*
X119095238Y-78754819D01*
X119095238Y-78754819D02*
X119000000Y-78897676D01*
X119000000Y-78897676D02*
X118904762Y-78992914D01*
X118904762Y-78992914D02*
X118809524Y-79040533D01*
X120571429Y-79373866D02*
X121333334Y-79373866D01*
X122476191Y-78754819D02*
X123095238Y-78754819D01*
X123095238Y-78754819D02*
X122761905Y-79135771D01*
X122761905Y-79135771D02*
X122904762Y-79135771D01*
X122904762Y-79135771D02*
X123000000Y-79183390D01*
X123000000Y-79183390D02*
X123047619Y-79231009D01*
X123047619Y-79231009D02*
X123095238Y-79326247D01*
X123095238Y-79326247D02*
X123095238Y-79564342D01*
X123095238Y-79564342D02*
X123047619Y-79659580D01*
X123047619Y-79659580D02*
X123000000Y-79707200D01*
X123000000Y-79707200D02*
X122904762Y-79754819D01*
X122904762Y-79754819D02*
X122619048Y-79754819D01*
X122619048Y-79754819D02*
X122523810Y-79707200D01*
X122523810Y-79707200D02*
X122476191Y-79659580D01*
X124285715Y-79088152D02*
X124285715Y-80088152D01*
X124285715Y-79135771D02*
X124380953Y-79088152D01*
X124380953Y-79088152D02*
X124571429Y-79088152D01*
X124571429Y-79088152D02*
X124666667Y-79135771D01*
X124666667Y-79135771D02*
X124714286Y-79183390D01*
X124714286Y-79183390D02*
X124761905Y-79278628D01*
X124761905Y-79278628D02*
X124761905Y-79564342D01*
X124761905Y-79564342D02*
X124714286Y-79659580D01*
X124714286Y-79659580D02*
X124666667Y-79707200D01*
X124666667Y-79707200D02*
X124571429Y-79754819D01*
X124571429Y-79754819D02*
X124380953Y-79754819D01*
X124380953Y-79754819D02*
X124285715Y-79707200D01*
X125190477Y-79754819D02*
X125190477Y-79088152D01*
X125190477Y-78754819D02*
X125142858Y-78802438D01*
X125142858Y-78802438D02*
X125190477Y-78850057D01*
X125190477Y-78850057D02*
X125238096Y-78802438D01*
X125238096Y-78802438D02*
X125190477Y-78754819D01*
X125190477Y-78754819D02*
X125190477Y-78850057D01*
X125666667Y-79088152D02*
X125666667Y-79754819D01*
X125666667Y-79183390D02*
X125714286Y-79135771D01*
X125714286Y-79135771D02*
X125809524Y-79088152D01*
X125809524Y-79088152D02*
X125952381Y-79088152D01*
X125952381Y-79088152D02*
X126047619Y-79135771D01*
X126047619Y-79135771D02*
X126095238Y-79231009D01*
X126095238Y-79231009D02*
X126095238Y-79754819D01*
X126523810Y-79707200D02*
X126619048Y-79754819D01*
X126619048Y-79754819D02*
X126809524Y-79754819D01*
X126809524Y-79754819D02*
X126904762Y-79707200D01*
X126904762Y-79707200D02*
X126952381Y-79611961D01*
X126952381Y-79611961D02*
X126952381Y-79564342D01*
X126952381Y-79564342D02*
X126904762Y-79469104D01*
X126904762Y-79469104D02*
X126809524Y-79421485D01*
X126809524Y-79421485D02*
X126666667Y-79421485D01*
X126666667Y-79421485D02*
X126571429Y-79373866D01*
X126571429Y-79373866D02*
X126523810Y-79278628D01*
X126523810Y-79278628D02*
X126523810Y-79231009D01*
X126523810Y-79231009D02*
X126571429Y-79135771D01*
X126571429Y-79135771D02*
X126666667Y-79088152D01*
X126666667Y-79088152D02*
X126809524Y-79088152D01*
X126809524Y-79088152D02*
X126904762Y-79135771D01*
X118880952Y-72264819D02*
X118880952Y-71264819D01*
X118880952Y-71741009D02*
X119452380Y-71741009D01*
X119452380Y-72264819D02*
X119452380Y-71264819D01*
X119928571Y-72264819D02*
X119928571Y-71264819D01*
X119928571Y-71264819D02*
X120166666Y-71264819D01*
X120166666Y-71264819D02*
X120309523Y-71312438D01*
X120309523Y-71312438D02*
X120404761Y-71407676D01*
X120404761Y-71407676D02*
X120452380Y-71502914D01*
X120452380Y-71502914D02*
X120499999Y-71693390D01*
X120499999Y-71693390D02*
X120499999Y-71836247D01*
X120499999Y-71836247D02*
X120452380Y-72026723D01*
X120452380Y-72026723D02*
X120404761Y-72121961D01*
X120404761Y-72121961D02*
X120309523Y-72217200D01*
X120309523Y-72217200D02*
X120166666Y-72264819D01*
X120166666Y-72264819D02*
X119928571Y-72264819D01*
X120785714Y-71264819D02*
X121357142Y-71264819D01*
X121071428Y-72264819D02*
X121071428Y-71264819D01*
X122214285Y-72264819D02*
X121642857Y-72264819D01*
X121928571Y-72264819D02*
X121928571Y-71264819D01*
X121928571Y-71264819D02*
X121833333Y-71407676D01*
X121833333Y-71407676D02*
X121738095Y-71502914D01*
X121738095Y-71502914D02*
X121642857Y-71550533D01*
X123166666Y-72264819D02*
X122595238Y-72264819D01*
X122880952Y-72264819D02*
X122880952Y-71264819D01*
X122880952Y-71264819D02*
X122785714Y-71407676D01*
X122785714Y-71407676D02*
X122690476Y-71502914D01*
X122690476Y-71502914D02*
X122595238Y-71550533D01*
X136166191Y-84064819D02*
X136166191Y-83064819D01*
X136166191Y-83064819D02*
X136404286Y-83064819D01*
X136404286Y-83064819D02*
X136547143Y-83112438D01*
X136547143Y-83112438D02*
X136642381Y-83207676D01*
X136642381Y-83207676D02*
X136690000Y-83302914D01*
X136690000Y-83302914D02*
X136737619Y-83493390D01*
X136737619Y-83493390D02*
X136737619Y-83636247D01*
X136737619Y-83636247D02*
X136690000Y-83826723D01*
X136690000Y-83826723D02*
X136642381Y-83921961D01*
X136642381Y-83921961D02*
X136547143Y-84017200D01*
X136547143Y-84017200D02*
X136404286Y-84064819D01*
X136404286Y-84064819D02*
X136166191Y-84064819D01*
X137166191Y-84064819D02*
X137166191Y-83064819D01*
X137642381Y-84064819D02*
X137642381Y-83064819D01*
X137642381Y-83064819D02*
X138023333Y-83064819D01*
X138023333Y-83064819D02*
X138118571Y-83112438D01*
X138118571Y-83112438D02*
X138166190Y-83160057D01*
X138166190Y-83160057D02*
X138213809Y-83255295D01*
X138213809Y-83255295D02*
X138213809Y-83398152D01*
X138213809Y-83398152D02*
X138166190Y-83493390D01*
X138166190Y-83493390D02*
X138118571Y-83541009D01*
X138118571Y-83541009D02*
X138023333Y-83588628D01*
X138023333Y-83588628D02*
X137642381Y-83588628D01*
X138642381Y-83683866D02*
X139404286Y-83683866D01*
X140404285Y-84064819D02*
X139832857Y-84064819D01*
X140118571Y-84064819D02*
X140118571Y-83064819D01*
X140118571Y-83064819D02*
X140023333Y-83207676D01*
X140023333Y-83207676D02*
X139928095Y-83302914D01*
X139928095Y-83302914D02*
X139832857Y-83350533D01*
X141261428Y-83064819D02*
X141070952Y-83064819D01*
X141070952Y-83064819D02*
X140975714Y-83112438D01*
X140975714Y-83112438D02*
X140928095Y-83160057D01*
X140928095Y-83160057D02*
X140832857Y-83302914D01*
X140832857Y-83302914D02*
X140785238Y-83493390D01*
X140785238Y-83493390D02*
X140785238Y-83874342D01*
X140785238Y-83874342D02*
X140832857Y-83969580D01*
X140832857Y-83969580D02*
X140880476Y-84017200D01*
X140880476Y-84017200D02*
X140975714Y-84064819D01*
X140975714Y-84064819D02*
X141166190Y-84064819D01*
X141166190Y-84064819D02*
X141261428Y-84017200D01*
X141261428Y-84017200D02*
X141309047Y-83969580D01*
X141309047Y-83969580D02*
X141356666Y-83874342D01*
X141356666Y-83874342D02*
X141356666Y-83636247D01*
X141356666Y-83636247D02*
X141309047Y-83541009D01*
X141309047Y-83541009D02*
X141261428Y-83493390D01*
X141261428Y-83493390D02*
X141166190Y-83445771D01*
X141166190Y-83445771D02*
X140975714Y-83445771D01*
X140975714Y-83445771D02*
X140880476Y-83493390D01*
X140880476Y-83493390D02*
X140832857Y-83541009D01*
X140832857Y-83541009D02*
X140785238Y-83636247D01*
X141547143Y-84160057D02*
X142309047Y-84160057D01*
X142451905Y-83064819D02*
X142690000Y-84064819D01*
X142690000Y-84064819D02*
X142880476Y-83350533D01*
X142880476Y-83350533D02*
X143070952Y-84064819D01*
X143070952Y-84064819D02*
X143309048Y-83064819D01*
X143594762Y-83064819D02*
X144261428Y-83064819D01*
X144261428Y-83064819D02*
X143832857Y-84064819D01*
X144642381Y-83969580D02*
X144690000Y-84017200D01*
X144690000Y-84017200D02*
X144642381Y-84064819D01*
X144642381Y-84064819D02*
X144594762Y-84017200D01*
X144594762Y-84017200D02*
X144642381Y-83969580D01*
X144642381Y-83969580D02*
X144642381Y-84064819D01*
X145547142Y-83064819D02*
X145356666Y-83064819D01*
X145356666Y-83064819D02*
X145261428Y-83112438D01*
X145261428Y-83112438D02*
X145213809Y-83160057D01*
X145213809Y-83160057D02*
X145118571Y-83302914D01*
X145118571Y-83302914D02*
X145070952Y-83493390D01*
X145070952Y-83493390D02*
X145070952Y-83874342D01*
X145070952Y-83874342D02*
X145118571Y-83969580D01*
X145118571Y-83969580D02*
X145166190Y-84017200D01*
X145166190Y-84017200D02*
X145261428Y-84064819D01*
X145261428Y-84064819D02*
X145451904Y-84064819D01*
X145451904Y-84064819D02*
X145547142Y-84017200D01*
X145547142Y-84017200D02*
X145594761Y-83969580D01*
X145594761Y-83969580D02*
X145642380Y-83874342D01*
X145642380Y-83874342D02*
X145642380Y-83636247D01*
X145642380Y-83636247D02*
X145594761Y-83541009D01*
X145594761Y-83541009D02*
X145547142Y-83493390D01*
X145547142Y-83493390D02*
X145451904Y-83445771D01*
X145451904Y-83445771D02*
X145261428Y-83445771D01*
X145261428Y-83445771D02*
X145166190Y-83493390D01*
X145166190Y-83493390D02*
X145118571Y-83541009D01*
X145118571Y-83541009D02*
X145070952Y-83636247D01*
X146023333Y-83160057D02*
X146070952Y-83112438D01*
X146070952Y-83112438D02*
X146166190Y-83064819D01*
X146166190Y-83064819D02*
X146404285Y-83064819D01*
X146404285Y-83064819D02*
X146499523Y-83112438D01*
X146499523Y-83112438D02*
X146547142Y-83160057D01*
X146547142Y-83160057D02*
X146594761Y-83255295D01*
X146594761Y-83255295D02*
X146594761Y-83350533D01*
X146594761Y-83350533D02*
X146547142Y-83493390D01*
X146547142Y-83493390D02*
X145975714Y-84064819D01*
X145975714Y-84064819D02*
X146594761Y-84064819D01*
X147023333Y-84064819D02*
X147023333Y-83398152D01*
X147023333Y-83493390D02*
X147070952Y-83445771D01*
X147070952Y-83445771D02*
X147166190Y-83398152D01*
X147166190Y-83398152D02*
X147309047Y-83398152D01*
X147309047Y-83398152D02*
X147404285Y-83445771D01*
X147404285Y-83445771D02*
X147451904Y-83541009D01*
X147451904Y-83541009D02*
X147451904Y-84064819D01*
X147451904Y-83541009D02*
X147499523Y-83445771D01*
X147499523Y-83445771D02*
X147594761Y-83398152D01*
X147594761Y-83398152D02*
X147737618Y-83398152D01*
X147737618Y-83398152D02*
X147832857Y-83445771D01*
X147832857Y-83445771D02*
X147880476Y-83541009D01*
X147880476Y-83541009D02*
X147880476Y-84064819D01*
X148356666Y-84064819D02*
X148356666Y-83398152D01*
X148356666Y-83493390D02*
X148404285Y-83445771D01*
X148404285Y-83445771D02*
X148499523Y-83398152D01*
X148499523Y-83398152D02*
X148642380Y-83398152D01*
X148642380Y-83398152D02*
X148737618Y-83445771D01*
X148737618Y-83445771D02*
X148785237Y-83541009D01*
X148785237Y-83541009D02*
X148785237Y-84064819D01*
X148785237Y-83541009D02*
X148832856Y-83445771D01*
X148832856Y-83445771D02*
X148928094Y-83398152D01*
X148928094Y-83398152D02*
X149070951Y-83398152D01*
X149070951Y-83398152D02*
X149166190Y-83445771D01*
X149166190Y-83445771D02*
X149213809Y-83541009D01*
X149213809Y-83541009D02*
X149213809Y-84064819D01*
X142144819Y-75937618D02*
X142954342Y-75937618D01*
X142954342Y-75937618D02*
X143049580Y-75889999D01*
X143049580Y-75889999D02*
X143097200Y-75842380D01*
X143097200Y-75842380D02*
X143144819Y-75747142D01*
X143144819Y-75747142D02*
X143144819Y-75556666D01*
X143144819Y-75556666D02*
X143097200Y-75461428D01*
X143097200Y-75461428D02*
X143049580Y-75413809D01*
X143049580Y-75413809D02*
X142954342Y-75366190D01*
X142954342Y-75366190D02*
X142144819Y-75366190D01*
X143144819Y-74413809D02*
X143144819Y-74889999D01*
X143144819Y-74889999D02*
X142144819Y-74889999D01*
X143144819Y-74080475D02*
X142144819Y-74080475D01*
X142144819Y-74080475D02*
X143144819Y-73509047D01*
X143144819Y-73509047D02*
X142144819Y-73509047D01*
X142144819Y-73128094D02*
X142144819Y-72461428D01*
X142144819Y-72461428D02*
X143144819Y-72889999D01*
X142144819Y-71889999D02*
X142144819Y-71794761D01*
X142144819Y-71794761D02*
X142192438Y-71699523D01*
X142192438Y-71699523D02*
X142240057Y-71651904D01*
X142240057Y-71651904D02*
X142335295Y-71604285D01*
X142335295Y-71604285D02*
X142525771Y-71556666D01*
X142525771Y-71556666D02*
X142763866Y-71556666D01*
X142763866Y-71556666D02*
X142954342Y-71604285D01*
X142954342Y-71604285D02*
X143049580Y-71651904D01*
X143049580Y-71651904D02*
X143097200Y-71699523D01*
X143097200Y-71699523D02*
X143144819Y-71794761D01*
X143144819Y-71794761D02*
X143144819Y-71889999D01*
X143144819Y-71889999D02*
X143097200Y-71985237D01*
X143097200Y-71985237D02*
X143049580Y-72032856D01*
X143049580Y-72032856D02*
X142954342Y-72080475D01*
X142954342Y-72080475D02*
X142763866Y-72128094D01*
X142763866Y-72128094D02*
X142525771Y-72128094D01*
X142525771Y-72128094D02*
X142335295Y-72080475D01*
X142335295Y-72080475D02*
X142240057Y-72032856D01*
X142240057Y-72032856D02*
X142192438Y-71985237D01*
X142192438Y-71985237D02*
X142144819Y-71889999D01*
X142144819Y-70937618D02*
X142144819Y-70842380D01*
X142144819Y-70842380D02*
X142192438Y-70747142D01*
X142192438Y-70747142D02*
X142240057Y-70699523D01*
X142240057Y-70699523D02*
X142335295Y-70651904D01*
X142335295Y-70651904D02*
X142525771Y-70604285D01*
X142525771Y-70604285D02*
X142763866Y-70604285D01*
X142763866Y-70604285D02*
X142954342Y-70651904D01*
X142954342Y-70651904D02*
X143049580Y-70699523D01*
X143049580Y-70699523D02*
X143097200Y-70747142D01*
X143097200Y-70747142D02*
X143144819Y-70842380D01*
X143144819Y-70842380D02*
X143144819Y-70937618D01*
X143144819Y-70937618D02*
X143097200Y-71032856D01*
X143097200Y-71032856D02*
X143049580Y-71080475D01*
X143049580Y-71080475D02*
X142954342Y-71128094D01*
X142954342Y-71128094D02*
X142763866Y-71175713D01*
X142763866Y-71175713D02*
X142525771Y-71175713D01*
X142525771Y-71175713D02*
X142335295Y-71128094D01*
X142335295Y-71128094D02*
X142240057Y-71080475D01*
X142240057Y-71080475D02*
X142192438Y-71032856D01*
X142192438Y-71032856D02*
X142144819Y-70937618D01*
X142240057Y-70223332D02*
X142192438Y-70175713D01*
X142192438Y-70175713D02*
X142144819Y-70080475D01*
X142144819Y-70080475D02*
X142144819Y-69842380D01*
X142144819Y-69842380D02*
X142192438Y-69747142D01*
X142192438Y-69747142D02*
X142240057Y-69699523D01*
X142240057Y-69699523D02*
X142335295Y-69651904D01*
X142335295Y-69651904D02*
X142430533Y-69651904D01*
X142430533Y-69651904D02*
X142573390Y-69699523D01*
X142573390Y-69699523D02*
X143144819Y-70270951D01*
X143144819Y-70270951D02*
X143144819Y-69651904D01*
X142859104Y-69270951D02*
X142859104Y-68794761D01*
X143144819Y-69366189D02*
X142144819Y-69032856D01*
X142144819Y-69032856D02*
X143144819Y-68699523D01*
X160624819Y-84440476D02*
X159624819Y-84440476D01*
X159624819Y-84440476D02*
X159624819Y-84202381D01*
X159624819Y-84202381D02*
X159672438Y-84059524D01*
X159672438Y-84059524D02*
X159767676Y-83964286D01*
X159767676Y-83964286D02*
X159862914Y-83916667D01*
X159862914Y-83916667D02*
X160053390Y-83869048D01*
X160053390Y-83869048D02*
X160196247Y-83869048D01*
X160196247Y-83869048D02*
X160386723Y-83916667D01*
X160386723Y-83916667D02*
X160481961Y-83964286D01*
X160481961Y-83964286D02*
X160577200Y-84059524D01*
X160577200Y-84059524D02*
X160624819Y-84202381D01*
X160624819Y-84202381D02*
X160624819Y-84440476D01*
X160720057Y-83678572D02*
X160720057Y-82916667D01*
X159624819Y-82821428D02*
X159624819Y-82250000D01*
X160624819Y-82535714D02*
X159624819Y-82535714D01*
X160243866Y-81916666D02*
X160243866Y-81154762D01*
X160624819Y-80154762D02*
X160624819Y-80726190D01*
X160624819Y-80440476D02*
X159624819Y-80440476D01*
X159624819Y-80440476D02*
X159767676Y-80535714D01*
X159767676Y-80535714D02*
X159862914Y-80630952D01*
X159862914Y-80630952D02*
X159910533Y-80726190D01*
X160720057Y-79964286D02*
X160720057Y-79202381D01*
X160624819Y-78964285D02*
X159624819Y-78964285D01*
X159624819Y-78964285D02*
X159624819Y-78583333D01*
X159624819Y-78583333D02*
X159672438Y-78488095D01*
X159672438Y-78488095D02*
X159720057Y-78440476D01*
X159720057Y-78440476D02*
X159815295Y-78392857D01*
X159815295Y-78392857D02*
X159958152Y-78392857D01*
X159958152Y-78392857D02*
X160053390Y-78440476D01*
X160053390Y-78440476D02*
X160101009Y-78488095D01*
X160101009Y-78488095D02*
X160148628Y-78583333D01*
X160148628Y-78583333D02*
X160148628Y-78964285D01*
X160624819Y-77440476D02*
X160624819Y-78011904D01*
X160624819Y-77726190D02*
X159624819Y-77726190D01*
X159624819Y-77726190D02*
X159767676Y-77821428D01*
X159767676Y-77821428D02*
X159862914Y-77916666D01*
X159862914Y-77916666D02*
X159910533Y-78011904D01*
X159624819Y-76821428D02*
X159624819Y-76726190D01*
X159624819Y-76726190D02*
X159672438Y-76630952D01*
X159672438Y-76630952D02*
X159720057Y-76583333D01*
X159720057Y-76583333D02*
X159815295Y-76535714D01*
X159815295Y-76535714D02*
X160005771Y-76488095D01*
X160005771Y-76488095D02*
X160243866Y-76488095D01*
X160243866Y-76488095D02*
X160434342Y-76535714D01*
X160434342Y-76535714D02*
X160529580Y-76583333D01*
X160529580Y-76583333D02*
X160577200Y-76630952D01*
X160577200Y-76630952D02*
X160624819Y-76726190D01*
X160624819Y-76726190D02*
X160624819Y-76821428D01*
X160624819Y-76821428D02*
X160577200Y-76916666D01*
X160577200Y-76916666D02*
X160529580Y-76964285D01*
X160529580Y-76964285D02*
X160434342Y-77011904D01*
X160434342Y-77011904D02*
X160243866Y-77059523D01*
X160243866Y-77059523D02*
X160005771Y-77059523D01*
X160005771Y-77059523D02*
X159815295Y-77011904D01*
X159815295Y-77011904D02*
X159720057Y-76964285D01*
X159720057Y-76964285D02*
X159672438Y-76916666D01*
X159672438Y-76916666D02*
X159624819Y-76821428D01*
X160529580Y-76059523D02*
X160577200Y-76011904D01*
X160577200Y-76011904D02*
X160624819Y-76059523D01*
X160624819Y-76059523D02*
X160577200Y-76107142D01*
X160577200Y-76107142D02*
X160529580Y-76059523D01*
X160529580Y-76059523D02*
X160624819Y-76059523D01*
X160624819Y-75059524D02*
X160624819Y-75630952D01*
X160624819Y-75345238D02*
X159624819Y-75345238D01*
X159624819Y-75345238D02*
X159767676Y-75440476D01*
X159767676Y-75440476D02*
X159862914Y-75535714D01*
X159862914Y-75535714D02*
X159910533Y-75630952D01*
X159624819Y-74202381D02*
X159624819Y-74392857D01*
X159624819Y-74392857D02*
X159672438Y-74488095D01*
X159672438Y-74488095D02*
X159720057Y-74535714D01*
X159720057Y-74535714D02*
X159862914Y-74630952D01*
X159862914Y-74630952D02*
X160053390Y-74678571D01*
X160053390Y-74678571D02*
X160434342Y-74678571D01*
X160434342Y-74678571D02*
X160529580Y-74630952D01*
X160529580Y-74630952D02*
X160577200Y-74583333D01*
X160577200Y-74583333D02*
X160624819Y-74488095D01*
X160624819Y-74488095D02*
X160624819Y-74297619D01*
X160624819Y-74297619D02*
X160577200Y-74202381D01*
X160577200Y-74202381D02*
X160529580Y-74154762D01*
X160529580Y-74154762D02*
X160434342Y-74107143D01*
X160434342Y-74107143D02*
X160196247Y-74107143D01*
X160196247Y-74107143D02*
X160101009Y-74154762D01*
X160101009Y-74154762D02*
X160053390Y-74202381D01*
X160053390Y-74202381D02*
X160005771Y-74297619D01*
X160005771Y-74297619D02*
X160005771Y-74488095D01*
X160005771Y-74488095D02*
X160053390Y-74583333D01*
X160053390Y-74583333D02*
X160101009Y-74630952D01*
X160101009Y-74630952D02*
X160196247Y-74678571D01*
X160624819Y-73678571D02*
X159958152Y-73678571D01*
X160053390Y-73678571D02*
X160005771Y-73630952D01*
X160005771Y-73630952D02*
X159958152Y-73535714D01*
X159958152Y-73535714D02*
X159958152Y-73392857D01*
X159958152Y-73392857D02*
X160005771Y-73297619D01*
X160005771Y-73297619D02*
X160101009Y-73250000D01*
X160101009Y-73250000D02*
X160624819Y-73250000D01*
X160101009Y-73250000D02*
X160005771Y-73202381D01*
X160005771Y-73202381D02*
X159958152Y-73107143D01*
X159958152Y-73107143D02*
X159958152Y-72964286D01*
X159958152Y-72964286D02*
X160005771Y-72869047D01*
X160005771Y-72869047D02*
X160101009Y-72821428D01*
X160101009Y-72821428D02*
X160624819Y-72821428D01*
X160624819Y-72345238D02*
X159958152Y-72345238D01*
X160053390Y-72345238D02*
X160005771Y-72297619D01*
X160005771Y-72297619D02*
X159958152Y-72202381D01*
X159958152Y-72202381D02*
X159958152Y-72059524D01*
X159958152Y-72059524D02*
X160005771Y-71964286D01*
X160005771Y-71964286D02*
X160101009Y-71916667D01*
X160101009Y-71916667D02*
X160624819Y-71916667D01*
X160101009Y-71916667D02*
X160005771Y-71869048D01*
X160005771Y-71869048D02*
X159958152Y-71773810D01*
X159958152Y-71773810D02*
X159958152Y-71630953D01*
X159958152Y-71630953D02*
X160005771Y-71535714D01*
X160005771Y-71535714D02*
X160101009Y-71488095D01*
X160101009Y-71488095D02*
X160624819Y-71488095D01*
X160720057Y-71250001D02*
X160720057Y-70488096D01*
X160624819Y-70250000D02*
X159624819Y-70250000D01*
X160101009Y-70250000D02*
X160101009Y-69678572D01*
X160624819Y-69678572D02*
X159624819Y-69678572D01*
X160624819Y-69059524D02*
X160577200Y-69154762D01*
X160577200Y-69154762D02*
X160529580Y-69202381D01*
X160529580Y-69202381D02*
X160434342Y-69250000D01*
X160434342Y-69250000D02*
X160148628Y-69250000D01*
X160148628Y-69250000D02*
X160053390Y-69202381D01*
X160053390Y-69202381D02*
X160005771Y-69154762D01*
X160005771Y-69154762D02*
X159958152Y-69059524D01*
X159958152Y-69059524D02*
X159958152Y-68916667D01*
X159958152Y-68916667D02*
X160005771Y-68821429D01*
X160005771Y-68821429D02*
X160053390Y-68773810D01*
X160053390Y-68773810D02*
X160148628Y-68726191D01*
X160148628Y-68726191D02*
X160434342Y-68726191D01*
X160434342Y-68726191D02*
X160529580Y-68773810D01*
X160529580Y-68773810D02*
X160577200Y-68821429D01*
X160577200Y-68821429D02*
X160624819Y-68916667D01*
X160624819Y-68916667D02*
X160624819Y-69059524D01*
X160624819Y-68297619D02*
X159958152Y-68297619D01*
X160148628Y-68297619D02*
X160053390Y-68250000D01*
X160053390Y-68250000D02*
X160005771Y-68202381D01*
X160005771Y-68202381D02*
X159958152Y-68107143D01*
X159958152Y-68107143D02*
X159958152Y-68011905D01*
X160624819Y-67678571D02*
X159958152Y-67678571D01*
X159624819Y-67678571D02*
X159672438Y-67726190D01*
X159672438Y-67726190D02*
X159720057Y-67678571D01*
X159720057Y-67678571D02*
X159672438Y-67630952D01*
X159672438Y-67630952D02*
X159624819Y-67678571D01*
X159624819Y-67678571D02*
X159720057Y-67678571D01*
X159958152Y-67297619D02*
X159958152Y-66773810D01*
X159958152Y-66773810D02*
X160624819Y-67297619D01*
X160624819Y-67297619D02*
X160624819Y-66773810D01*
X160624819Y-66250000D02*
X160577200Y-66345238D01*
X160577200Y-66345238D02*
X160529580Y-66392857D01*
X160529580Y-66392857D02*
X160434342Y-66440476D01*
X160434342Y-66440476D02*
X160148628Y-66440476D01*
X160148628Y-66440476D02*
X160053390Y-66392857D01*
X160053390Y-66392857D02*
X160005771Y-66345238D01*
X160005771Y-66345238D02*
X159958152Y-66250000D01*
X159958152Y-66250000D02*
X159958152Y-66107143D01*
X159958152Y-66107143D02*
X160005771Y-66011905D01*
X160005771Y-66011905D02*
X160053390Y-65964286D01*
X160053390Y-65964286D02*
X160148628Y-65916667D01*
X160148628Y-65916667D02*
X160434342Y-65916667D01*
X160434342Y-65916667D02*
X160529580Y-65964286D01*
X160529580Y-65964286D02*
X160577200Y-66011905D01*
X160577200Y-66011905D02*
X160624819Y-66107143D01*
X160624819Y-66107143D02*
X160624819Y-66250000D01*
X159958152Y-65488095D02*
X160624819Y-65488095D01*
X160053390Y-65488095D02*
X160005771Y-65440476D01*
X160005771Y-65440476D02*
X159958152Y-65345238D01*
X159958152Y-65345238D02*
X159958152Y-65202381D01*
X159958152Y-65202381D02*
X160005771Y-65107143D01*
X160005771Y-65107143D02*
X160101009Y-65059524D01*
X160101009Y-65059524D02*
X160624819Y-65059524D01*
X159958152Y-64726190D02*
X159958152Y-64345238D01*
X159624819Y-64583333D02*
X160481961Y-64583333D01*
X160481961Y-64583333D02*
X160577200Y-64535714D01*
X160577200Y-64535714D02*
X160624819Y-64440476D01*
X160624819Y-64440476D02*
X160624819Y-64345238D01*
X160624819Y-63583333D02*
X160101009Y-63583333D01*
X160101009Y-63583333D02*
X160005771Y-63630952D01*
X160005771Y-63630952D02*
X159958152Y-63726190D01*
X159958152Y-63726190D02*
X159958152Y-63916666D01*
X159958152Y-63916666D02*
X160005771Y-64011904D01*
X160577200Y-63583333D02*
X160624819Y-63678571D01*
X160624819Y-63678571D02*
X160624819Y-63916666D01*
X160624819Y-63916666D02*
X160577200Y-64011904D01*
X160577200Y-64011904D02*
X160481961Y-64059523D01*
X160481961Y-64059523D02*
X160386723Y-64059523D01*
X160386723Y-64059523D02*
X160291485Y-64011904D01*
X160291485Y-64011904D02*
X160243866Y-63916666D01*
X160243866Y-63916666D02*
X160243866Y-63678571D01*
X160243866Y-63678571D02*
X160196247Y-63583333D01*
X160624819Y-62964285D02*
X160577200Y-63059523D01*
X160577200Y-63059523D02*
X160481961Y-63107142D01*
X160481961Y-63107142D02*
X159624819Y-63107142D01*
D11*
X158041084Y-74363332D02*
X157736322Y-74576666D01*
X158041084Y-74729047D02*
X157401084Y-74729047D01*
X157401084Y-74729047D02*
X157401084Y-74485237D01*
X157401084Y-74485237D02*
X157431560Y-74424285D01*
X157431560Y-74424285D02*
X157462036Y-74393808D01*
X157462036Y-74393808D02*
X157522988Y-74363332D01*
X157522988Y-74363332D02*
X157614417Y-74363332D01*
X157614417Y-74363332D02*
X157675369Y-74393808D01*
X157675369Y-74393808D02*
X157705846Y-74424285D01*
X157705846Y-74424285D02*
X157736322Y-74485237D01*
X157736322Y-74485237D02*
X157736322Y-74729047D01*
X157705846Y-74089047D02*
X157705846Y-73875713D01*
X158041084Y-73784285D02*
X158041084Y-74089047D01*
X158041084Y-74089047D02*
X157401084Y-74089047D01*
X157401084Y-74089047D02*
X157401084Y-73784285D01*
X157705846Y-73296665D02*
X157705846Y-73509999D01*
X158041084Y-73509999D02*
X157401084Y-73509999D01*
X157401084Y-73509999D02*
X157401084Y-73205237D01*
X157401084Y-72869999D02*
X157553465Y-72869999D01*
X157492512Y-73022380D02*
X157553465Y-72869999D01*
X157553465Y-72869999D02*
X157492512Y-72717618D01*
X157675369Y-72961428D02*
X157553465Y-72869999D01*
X157553465Y-72869999D02*
X157675369Y-72778570D01*
X157401084Y-72382380D02*
X157553465Y-72382380D01*
X157492512Y-72534761D02*
X157553465Y-72382380D01*
X157553465Y-72382380D02*
X157492512Y-72229999D01*
X157675369Y-72473809D02*
X157553465Y-72382380D01*
X157553465Y-72382380D02*
X157675369Y-72290951D01*
D10*
X156204819Y-79091904D02*
X155204819Y-79091904D01*
X156204819Y-78520476D02*
X155633390Y-78949047D01*
X155204819Y-78520476D02*
X155776247Y-79091904D01*
D12*
%TO.C,HDT11*%
X118250000Y-68000000D02*
X118250000Y-76000000D01*
X118250000Y-68000000D02*
X119250000Y-68000000D01*
X118250000Y-68000000D02*
X123750000Y-68000000D01*
X123750000Y-68000000D02*
X123750000Y-76000000D01*
X123750000Y-76000000D02*
X118250000Y-76000000D01*
%TO.C,ULN7002A*%
X139515000Y-63230000D02*
X140515000Y-62230000D01*
X139515000Y-82550000D02*
X139515000Y-63230000D01*
X140515000Y-62230000D02*
X145865000Y-62230000D01*
X145865000Y-62230000D02*
X145865000Y-82550000D01*
X145865000Y-82550000D02*
X139515000Y-82550000D01*
%TO.C,REF\u002A\u002A*%
X156450000Y-74770000D02*
X159050000Y-74770000D01*
X156450000Y-74870000D02*
X159050000Y-74870000D01*
X156450000Y-74970000D02*
X159050000Y-74970000D01*
X157750000Y-68670000D02*
X157750000Y-72150000D01*
X157750000Y-78830000D02*
X157750000Y-75350000D01*
X156450000Y-75350000D02*
X159050000Y-75350000D01*
X159050000Y-72150000D01*
X156450000Y-72150000D01*
X156450000Y-75350000D01*
%TD*%
M02*
